<svg fill="none" version="1.1" viewBox="0 0 144 144" xmlns="http://www.w3.org/2000/svg">
 <path d="m48 45c-3.3137 0-6 2.6863-6 6v39c0 3.3137 2.6863 6 6 6h48c3.3137 0 6-2.6863 6-6v-30c0-3.3137-2.6863-6-6-6h-22.758c-0.7956 0-1.5585-0.31631-2.1211-0.87891l-6.3633-6.3633c-1.1253-1.1253-2.6509-1.7578-4.2422-1.7578h-12.516zm0 4.5h12.516c0.3978 0 0.77925 0.15815 1.0605 0.43945l6.3633 6.3633c1.4066 1.4065 3.3136 2.1973 5.3027 2.1973h22.758c0.8284 0 1.5 0.6716 1.5 1.5v30c0 0.8284-0.6716 1.5-1.5 1.5h-48c-0.8284 0-1.5-0.6716-1.5-1.5v-39c0-0.8284 0.6716-1.5 1.5-1.5z" fill="#fff"/>
</svg>
